<svg xmlns="http://www.w3.org/2000/svg" xmlns:xlink="http://www.w3.org/1999/xlink" viewBox="0 0 388.9 247.5" xml:space="preserve">
<g>
	<path fill="#E9EEF1" d="M136.8,0.7l28.7,7.4v28.7l-28.7-7.4V0.7 M136.2,0v29.9l29.9,7.7V7.7L136.2,0L136.2,0z"/>
	<polygon fill="#E9EEF1" points="136.2,61.8 136.2,31.9 166.1,39.6 166.1,69.5 	"/>
	<path fill="#E9EEF1" d="M136.8,64.6l28.7,7.4v28.7l-28.7-7.4V64.6 M136.2,63.8v29.9l29.9,7.7V71.5L136.2,63.8L136.2,63.8z"/>
	<polygon fill="#E9EEF1" points="136.2,125.6 136.2,95.8 166.1,103.4 166.1,133.3 	"/>
	<polygon fill="#E9EEF1" points="168.1,102.2 168.1,72.3 198,80 198,109.9 	"/>
	<path fill="#E9EEF1" d="M168.7,105l28.7,7.4v28.7l-28.7-7.4V105 M168.1,104.3v29.9l29.9,7.7V112L168.1,104.3L168.1,104.3z"/>
	<path fill="#E9EEF1" d="M200.6,81.6l28.7,7.4v28.7l-28.7-7.4V81.6 M200.1,80.8v29.9l29.9,7.7V88.5L200.1,80.8L200.1,80.8z"/>
	<polygon fill="#E9EEF1" points="200.1,142.6 200.1,112.8 229.9,120.5 229.9,150.3 	"/>
	<polygon fill="#E9EEF1" points="232,119.2 232,89.4 261.8,97 261.8,126.9 	"/>
	<path fill="#E9EEF1" d="M232.6,122l28.7,7.4v28.7l-28.7-7.4V122 M232,121.3v29.9l29.9,7.7V129L232,121.3L232,121.3z"/>
	<polygon fill="#E9EEF1" points="168.1,38.4 168.1,8.5 198,16.2 198,46.1 	"/>
	<path fill="#E9EEF1" d="M168.7,41.2l28.7,7.4v28.7l-28.7-7.4V41.2 M168.1,40.4v29.9L198,78V48.1L168.1,40.4L168.1,40.4z"/>
</g>
<g>
	<path fill="#E9EEF1" d="M21.1,247.2H0v-1h1.4c0.3,0,0.5-0.1,0.5-0.4c0-0.3,0-0.6,0-0.8v-56.3c0-0.3,0-0.5,0-0.8
		c0-0.3-0.2-0.4-0.5-0.4H0v-1h7.6v55.9l5.1-37.8c-0.2,0-0.4-0.1-0.5-0.4c-0.1-0.2-0.2-0.4-0.2-0.5c0-0.3,0.1-0.4,0.3-0.5
		c0.2-0.1,0.3-0.1,0.4-0.1c0.2,0,0.3,0.1,0.6,0.2c0.2,0.1,0.3,0.3,0.3,0.6c0,0.5-0.2,0.8-0.6,0.8l-5.4,40.4v1.3h9.1
		c0.9-0.1,1.6-0.4,2.1-0.9c0.5-0.5,0.8-1.1,1.1-1.7c0.3-0.6,0.4-1.3,0.6-2.1H22l-0.7,4.9L21.1,247.2z M4.9,187.4
		c-0.1,0.1-0.2,0.2-0.3,0.3c-0.1,0.1-0.2,0.3-0.2,0.7v34.1h0.9v-35.1H4.9z M4.3,245.1c0,0.5,0.1,0.8,0.3,0.9
		c0.2,0.1,0.3,0.2,0.5,0.2h1v-23.3H4.3V245.1z M6.9,187.4H5.5L6.5,214h0.5V187.4z M5.5,222.5h0.6v-8.2H5.5V222.5z M6.5,246.2h0.5
		v-31.9H6.5V246.2z"/>
	<path fill="#E9EEF1" d="M43.1,225.6c-0.8,2.5-1.6,4.9-2.3,7.1c-0.7,2.2-1.4,4.2-2,6c-0.6,1.8-1.1,3.3-1.5,4.4
		c-0.4,1.2-0.6,1.9-0.7,2.3c-0.1,0.1-0.1,0.2,0,0.4c0.1,0.2,0.3,0.3,0.7,0.3h1.4v1h-4.4v-1c0.2,0,0.4,0,0.6,0.1
		c0.2,0.1,0.3,0,0.5-0.1c0.1-0.1,0.2-0.2,0.3-0.4l0.2-0.3l6.9-20.2l-7.3-5.1h-0.3c-0.6,0-0.9-0.3-0.9-0.9c0-0.2,0.1-0.3,0.2-0.5
		c0.2-0.2,0.4-0.2,0.6-0.2c0.2,0,0.3,0.1,0.5,0.2c0.2,0.2,0.3,0.3,0.3,0.5v0.2l7,4.9l12.9-37.7l2-0.5l19.2,61h-2.4L43.1,225.6z
		 M55.7,188.1c-0.1,0.5-0.6,1.9-1.3,4.3c-0.8,2.4-1.8,5.4-2.9,8.9c-1.2,3.5-2.4,7.3-3.8,11.4c-1.4,4.1-2.7,8.1-4.1,12l30.4,20.7
		L55.7,188.1z M55,202.8c0.2-0.4,0.5-0.4,0.9-0.2c0.5,0.3,0.6,0.6,0.4,1c-0.3,0.5-0.7,0.6-1,0.3C54.9,203.8,54.8,203.4,55,202.8z"/>
	<path fill="#E9EEF1" d="M128.4,224.1l-21.4,23.4h-2.4l-18.1-35.8l8.8-9.4l-2.5-5c-0.2,0-0.4-0.1-0.6-0.2c-0.1-0.1-0.2-0.2-0.2-0.4
		c0-0.2,0-0.4,0-0.6c0.1-0.1,0.3-0.2,0.5-0.3c0.2-0.1,0.4,0,0.5,0.2c0.2,0.1,0.3,0.2,0.4,0.4c0.1,0.2,0,0.4-0.2,0.6v0.1l2.4,4.7
		l12.3-13.1l2-1.6L128.4,224.1z M106.5,246.3c0.9-1.1,2.1-2.3,3.4-3.7c1.3-1.4,2.6-2.8,3.9-4.2l-18-35c-1.3,1.4-2.5,2.7-3.7,4
		c-1.2,1.3-2.4,2.5-3.5,3.6L106.5,246.3z M108.3,189.4c-0.1,0.1-0.5,0.6-1.2,1.4c-0.7,0.8-1.6,1.9-2.8,3.1c-1.1,1.3-2.4,2.7-3.9,4.3
		c-1.4,1.6-2.9,3.2-4.4,4.8l18.1,34.9c1.4-1.6,2.8-3.2,4.1-4.8c1.3-1.6,2.6-3,3.7-4.3c1.1-1.3,2-2.4,2.8-3.2
		c0.7-0.8,1.2-1.4,1.3-1.6L108.3,189.4z M106.2,204.1c0.1-0.1,0.3-0.2,0.5-0.3c0.2-0.1,0.4,0,0.6,0.1c0.2,0.1,0.3,0.3,0.4,0.5
		c0.1,0.2,0.1,0.4,0,0.6c-0.2,0.2-0.3,0.3-0.6,0.3c-0.2,0-0.4,0-0.6,0c-0.3-0.1-0.4-0.3-0.4-0.5S106.1,204.3,106.2,204.1z"/>
	<path fill="#E9EEF1" d="M182.6,244.6c0,0.4,0.1,0.7,0.3,0.9c0.2,0.2,0.4,0.3,0.7,0.4c0.3,0.1,0.5,0.1,0.8,0.1c0.3,0,0.5,0,0.7,0v1
		h-6.7v-0.2H178v-57.6l-13.6,37.9l6,13.2c0.3,0,0.5,0.1,0.6,0.2c0.1,0.2,0.2,0.3,0.2,0.5c0,0.6-0.3,0.9-0.8,0.9
		c-0.5,0-0.7-0.3-0.7-1l-21.1-16.4c-0.1,0.1-0.2,0.2-0.4,0.2c-0.6,0-0.9-0.3-0.9-0.9c0-0.3,0.1-0.4,0.3-0.6c0.2-0.1,0.4-0.2,0.6-0.2
		c0.4,0,0.6,0.3,0.6,0.9l20.9,16.5l-24.2-52.7c-0.1,0.1-0.3,0.1-0.6,0c-0.3,0-0.4,0.2-0.4,0.6v24c0,3.2,0,6.5,0,9.7
		c0,3.3,0,6.4,0,9.3c0,2.9,0,5.6,0,8.1c0,2.4,0,4.4,0,5.9c0,0.3,0.1,0.5,0.2,0.6c0.2,0.1,0.7,0.2,1.6,0.1v0.9H142V246
		c0.7-0.1,1.2-0.1,1.4-0.1c0.2,0,0.3-0.2,0.3-0.6v-57c-0.1-0.2-0.3-0.3-0.5-0.3c-0.2-0.1-0.5-0.1-0.7-0.2c-0.2-0.1-0.4-0.1-0.7-0.2
		v-0.9h5l17,38.7l13.6-36.4l-13,14.8c0.1,0.1,0.2,0.2,0.2,0.3c0,0.2-0.1,0.4-0.3,0.6c-0.2,0.2-0.4,0.2-0.6,0.2
		c-0.2,0-0.4-0.1-0.5-0.3c-0.1-0.2-0.2-0.4-0.2-0.6c0-0.2,0.1-0.4,0.3-0.5c0.2-0.1,0.4-0.2,0.5-0.2c0.1,0,0.1,0,0.2,0
		c0.1,0,0.1,0,0.2,0l13.6-15.3l0.6-1.6h6.9v1c-0.2,0-0.4,0-0.6,0c-0.2,0-0.5,0-0.7,0c-0.3,0-0.5,0.1-0.8,0.2
		c-0.3,0.1-0.4,0.4-0.4,0.9V244.6z M179.7,245.9c0.4,0,0.6-0.3,0.6-0.8v-0.5v-55.9v-0.4c0-0.4-0.2-0.6-0.6-0.6s-0.7,0-1,0v58.2
		H179.7z M179,189.8c0-0.3,0.1-0.4,0.4-0.4c0.3,0,0.4,0.1,0.4,0.4c0,0.3-0.1,0.4-0.4,0.4C179.1,190.2,179,190.1,179,189.8z
		 M179,193.6c0-0.3,0.1-0.4,0.4-0.4c0.3,0,0.4,0.1,0.4,0.4c0,0.3-0.1,0.4-0.4,0.4C179.1,194,179,193.8,179,193.6z M179,197.8
		c0-0.3,0.1-0.4,0.4-0.4c0.3,0,0.4,0.1,0.4,0.4c0,0.3-0.1,0.4-0.4,0.4C179.1,198.2,179,198.1,179,197.8z M179,201.6
		c0-0.3,0.1-0.4,0.4-0.4c0.3,0,0.4,0.1,0.4,0.4c0,0.3-0.1,0.4-0.4,0.4C179.1,202,179,201.9,179,201.6z M179,205.9
		c0-0.3,0.1-0.4,0.4-0.4c0.3,0,0.4,0.1,0.4,0.4c0,0.3-0.1,0.4-0.4,0.4C179.1,206.3,179,206.1,179,205.9z M179,210.1
		c0-0.3,0.1-0.4,0.4-0.4c0.3,0,0.4,0.1,0.4,0.4c0,0.3-0.1,0.4-0.4,0.4C179.1,210.5,179,210.4,179,210.1z M179.1,215.4
		c0-0.3,0.1-0.4,0.4-0.4c0.3,0,0.4,0.1,0.4,0.4c0,0.3-0.1,0.4-0.4,0.4C179.2,215.8,179.1,215.7,179.1,215.4z M179.1,220.6
		c0-0.3,0.1-0.4,0.4-0.4c0.3,0,0.4,0.1,0.4,0.4c0,0.3-0.1,0.4-0.4,0.4C179.2,220.9,179.1,220.8,179.1,220.6z M179.1,226.7
		c0-0.3,0.1-0.4,0.4-0.4c0.3,0,0.4,0.1,0.4,0.4c0,0.3-0.1,0.4-0.4,0.4C179.2,227.1,179.1,227,179.1,226.7z M179.1,232.6
		c0-0.3,0.1-0.4,0.4-0.4c0.3,0,0.4,0.1,0.4,0.4c0,0.3-0.1,0.4-0.4,0.4C179.2,233,179.1,232.9,179.1,232.6z M179.1,232.6
		c0-0.3,0.1-0.4,0.4-0.4c0.3,0,0.4,0.1,0.4,0.4c0,0.3-0.1,0.4-0.4,0.4C179.2,233,179.1,232.9,179.1,232.6z M179.1,237.6
		c0-0.3,0.1-0.4,0.4-0.4c0.3,0,0.4,0.1,0.4,0.4c0,0.3-0.1,0.4-0.4,0.4C179.2,238,179.1,237.8,179.1,237.6z M179.1,242.9
		c0-0.3,0.1-0.4,0.4-0.4c0.3,0,0.4,0.1,0.4,0.4c0,0.3-0.1,0.4-0.4,0.4C179.2,243.3,179.1,243.1,179.1,242.9z"/>
	<path fill="#E9EEF1" d="M229,246.7v0.5h-30l0.1-0.8c0.6-0.1,1.1-0.2,1.5-0.3c0.3-0.2,0.6-0.3,0.7-0.5c0.1-0.2,0.2-0.4,0.2-0.5
		c0-0.2,0-0.3,0-0.3v-20.5l-2.4-1.8v-0.6v-0.1l2.4-4v-29.3c-0.1-0.2-0.2-0.4-0.5-0.8c-0.3-0.4-0.9-0.6-2-0.6v-0.9h4.8h21.6l1,5.1h-1
		c0.1-0.7,0-1.4-0.2-2c-0.1-0.5-0.3-1-0.7-1.4c-0.3-0.4-0.8-0.7-1.4-0.8h-0.2h-2.9l-7.8,13.5l1.7,2.7c0.1,0,0.3,0.1,0.5,0.3
		c0.2,0.2,0.3,0.4,0.3,0.7c0,0.1-0.1,0.2-0.2,0.4c-0.1,0.2-0.3,0.2-0.6,0.2c-0.2,0-0.4-0.1-0.7-0.4c0-0.2,0-0.3,0-0.5
		c0-0.2,0.1-0.3,0.2-0.3l-1.7-2.6l-8,13.4v7.3h17c0.1-0.3,0.3-0.5,0.7-0.5c0.5,0,0.8,0.3,0.8,0.8c0,0.2-0.1,0.3-0.2,0.5
		c-0.1,0.2-0.3,0.2-0.6,0.2c-0.2,0-0.4-0.1-0.6-0.2l-17.1,0.2v2.8l8,6.5l1.7-2.6c-0.2-0.2-0.2-0.5,0-0.7c0.2-0.3,0.4-0.4,0.7-0.3
		c0.4,0.1,0.6,0.3,0.6,0.7c0,0.1-0.1,0.2-0.2,0.4c-0.1,0.2-0.4,0.2-0.7,0.2l-1.6,2.6l16.3,13.4l0.1,0.2L229,246.7z M201.6,218.7
		l-1.7,3.2h1.7V218.7z M201.6,223.5v-0.7h-0.8L201.6,223.5z M203.9,198.2h6.3l-6.3-10.5V198.2z M203.9,213.5l7.7-12.9l-1-2h-6.7
		V213.5z M203.9,226.2v6h7.4L203.9,226.2z M203.9,245l7.7-12.2h-7.7V245z M228.3,246l-16-13.2l-8.3,13v0.2h0.4H228.3z M219.5,187.2
		h-15.1L212,200L219.5,187.2z"/>
	<path fill="#E9EEF1" d="M267.5,219.6l-0.2,1.3L251,246.1l-0.9,0.9l-5.9-13.4v11.5c0,0.4,0.1,0.6,0.4,0.8c0.2,0.2,0.5,0.3,0.9,0.3
		c0.3,0.1,0.7,0.1,1,0.1c0.3,0,0.6,0,0.9,0v0.9h-7.2v-0.9h1.3c0.3,0,0.5-0.2,0.5-0.6v-0.6V228l-2.4-5.6c-0.2,0.1-0.3,0-0.6-0.2
		s-0.3-0.3-0.3-0.5c0-0.3,0.1-0.6,0.2-0.7c0.2-0.2,0.3-0.2,0.5-0.2c0.6,0,0.9,0.3,0.9,0.9c0,0.2-0.2,0.4-0.5,0.6l2.2,4.7v-38.8v-0.6
		c0-0.3-0.2-0.5-0.5-0.5c-0.5,0-0.8,0-0.9-0.1c-0.2,0-0.3,0-0.3-0.1v-0.9h7.2L267.5,219.6z M244.9,187.4c-0.2,0-0.3,0.1-0.5,0.2
		c-0.2,0.1-0.2,0.4-0.2,0.8v2.8h2.8v-3.3l-0.4-0.6H244.9z M247,191.5h-2.8v14h2.8V191.5z M244.2,206v13.2h2.8V206H244.2z
		 M244.2,230.5h2.8v-11h-2.8V230.5z M244.2,232.1l2.8,5.4v-6.5h-2.8V232.1z M266.9,220l-19.2-31.1v49.8l2.2,4.6V204
		c-0.4,0-0.6-0.2-0.6-0.7c0-0.5,0.2-0.8,0.6-0.8c0.3,0,0.5,0.1,0.7,0.2c0.2,0.2,0.3,0.4,0.3,0.7c0,0.4-0.2,0.6-0.6,0.6v40.3l0.7,1.3
		L266.9,220z"/>
	<path fill="#E9EEF1" d="M309.7,246.7v0.6h-24.9h-5v-0.9h0.2c0.6-0.1,1.1-0.2,1.5-0.3c0.3-0.2,0.6-0.3,0.7-0.6
		c0.2-0.2,0.3-0.4,0.2-0.7v-20.3l-2.1-1.8l-0.2-0.6h0.2h-0.2h2.3v-33c-0.1-0.2-0.3-0.4-0.6-0.8c-0.3-0.4-0.9-0.6-1.9-0.6v-0.9h2.4
		h2.4h18.3v-0.2h3.2l1,5.2h-1c-0.1-0.7-0.2-1.3-0.4-1.9c-0.2-0.5-0.4-0.9-0.7-1.3c-0.3-0.4-0.7-0.7-1.3-0.8l-19.1-0.2v34.4l17.3,0.3
		l0.2,0.9h-17.5v2.6l24.6,20.1v0.2L309.7,246.7z M282.5,223.1h-0.9l0.9,0.6V223.1z M308.9,246.1l-24.1-19.7v19.7h0.4H308.9z
		 M295.2,205.3c-0.4,0.2-0.8,0.1-1.1-0.3c-0.1-0.2-0.1-0.3,0-0.6c0.1-0.2,0.2-0.4,0.4-0.5c0.5-0.2,0.9-0.1,1.1,0.3
		C295.8,204.8,295.7,205.1,295.2,205.3z M303,222.7c0,0.5-0.2,0.7-0.6,0.7c-0.5,0-0.7-0.2-0.7-0.7c0-0.5,0.2-0.8,0.7-0.8
		C302.7,221.9,303,222.2,303,222.7z"/>
	<path fill="#E9EEF1" d="M329.5,193.9v3.3h1.4v0.3h-1.4v4.5h2.1v0.3h-2.1v4.9h1.4v0.4h-1.4v3.2h2.1v0.3h-2.1v4.8h1.4v0.3h-1.4v4.2
		h2.1v0.4h-2.1v6h1.4v0.4h-1.4v4.3h2.1v0.3h-2.1v6.6h1.4v0.3h-1.4v4.3h2.1v0.4h-2.1v1.2v0.5c0,0.2,0,0.4,0.1,0.6s0.3,0.2,0.6,0.2
		h0.7v1h-7.3v-1c0.3,0,0.7,0,1.3,0c0.6,0,0.9-0.2,0.9-0.8v-0.3h0.2v-40.5c-0.3,0-0.5-0.1-0.6-0.3c-0.1-0.2-0.1-0.3-0.1-0.4
		c0-0.2,0.1-0.4,0.2-0.6c0.1-0.2,0.3-0.3,0.6-0.3c0.5,0,0.8,0.2,0.8,0.7c0,0.2-0.1,0.3-0.2,0.5c-0.1,0.2-0.3,0.3-0.5,0.3v40.5h0.9
		v-56h-1.3v-0.3c0-0.3-0.1-0.5-0.3-0.6c-0.2-0.1-0.4-0.2-0.6-0.2c-0.2,0-0.5,0-0.7,0c-0.2,0-0.4,0-0.5,0v-1h7.3v1h-0.7
		c-0.3,0-0.5,0.1-0.6,0.2s-0.1,0.3-0.1,0.6v0.5v1.2h1.4v0.4h-1.4v3h2.1v0.4H329.5z"/>
	<path fill="#E9EEF1" d="M355.6,225.8c-0.8,2.5-1.6,4.9-2.4,7.1c-0.8,2.2-1.4,4.2-2,6c-0.6,1.7-1.1,3.2-1.5,4.3
		c-0.4,1.2-0.6,1.9-0.7,2.2c-0.1,0.1-0.1,0.2-0.1,0.3s0.1,0.3,0.4,0.3c0.2,0.1,0.5,0.1,0.7,0.1c0.3,0,0.5,0,0.7,0
		c0.2,0,0.3,0,0.3,0.1v0.9h-4.3v-0.9c0.3-0.1,0.6-0.2,0.9-0.2c0.3,0,0.5-0.2,0.5-0.7l6.7-20l-7.3-5c-0.7,0.1-1-0.1-1-0.7
		c0-0.6,0.3-0.9,0.9-0.9c0.3,0,0.4,0.1,0.6,0.4c0.1,0.2,0.2,0.5,0.2,0.7l7,4.7l8.8-25.9l3.9-11.4l1.9-0.5l19,60.3h-2.4L355.6,225.8z
		 M364.4,199.6c-0.6,1.8-1.2,3.7-1.9,5.8c-0.7,2.1-1.4,4.2-2.2,6.4c-0.7,2.2-1.5,4.4-2.2,6.7c-0.8,2.2-1.5,4.4-2.2,6.6l19.5,13.1
		L364.4,199.6z M367.9,189.4c-0.3,0.7-0.7,1.9-1.2,3.5c-0.6,1.6-1.2,3.4-1.9,5.6l11.4,40.2l9.3,6.4l-8.6-11
		c-0.2,0.1-0.3,0.2-0.4,0.2c-0.2,0-0.4-0.1-0.5-0.2c-0.1-0.2-0.2-0.3-0.2-0.5c0-0.1,0.1-0.3,0.2-0.5c0.1-0.2,0.2-0.4,0.4-0.4
		l-0.2-17.3l-5.8,2.1l-0.2-0.4l6.1-2.1l-7.6-10.6c-0.3,0.2-0.5,0.2-0.6,0.2c-0.5,0-0.7-0.2-0.7-0.6c0-0.2,0.1-0.4,0.2-0.6
		c0.2-0.2,0.3-0.3,0.4-0.3V189.4z M368.2,189v14c0,0.1,0.1,0.2,0.2,0.2c0.1,0,0.2,0.1,0.4,0.2l-0.2-0.2l3.6-1.4v0.2L368.2,189z
		 M368.7,204.2V204l7.4,10.2l-3.9-12.1l-3.5,1.4V204.2z M381.7,231.7l-5.2-16.3l0.2,17.2c0.1,0,0.2,0,0.2,0c0.1,0,0.2,0.1,0.3,0.4
		L381.7,231.7z M385.8,244.9l-4.1-12.9v0.2l-4.3,1.2c0,0.2-0.1,0.4-0.2,0.6L385.8,244.9z"/>
</g>
<g>
</g>
<g>
</g>
<g>
</g>
<g>
</g>
<g>
</g>
<g>
</g>
<g>
</g>
<g>
</g>
<g>
</g>
<g>
</g>
<g>
</g>
<g>
</g>
<g>
</g>
<g>
</g>
<g>
</g>
</svg>
